<?xml version="1.0" encoding="UTF-8" standalone="no"?>
<svg xmlns:dc="http://purl.org/dc/elements/1.1/" xmlns:cc="http://creativecommons.org/ns#" xmlns:rdf="http://www.w3.org/1999/02/22-rdf-syntax-ns#" xmlns:svg="http://www.w3.org/2000/svg" xmlns="http://www.w3.org/2000/svg" xmlns:sodipodi="http://sodipodi.sourceforge.net/DTD/sodipodi-0.dtd" xmlns:inkscape="http://www.inkscape.org/namespaces/inkscape" width="287.071311" height="41.138814" viewBox="0 0 200 200" id="svg2" sodipodi:version="0.32" inkscape:version="0.46" sodipodi:docname="Alienware logo.svg" inkscape:output_extension="org.inkscape.output.svg.inkscape" version="1.0">
  <metadata id="metadata23">
    <rdf:RDF>
      <cc:Work rdf:about="">
        <dc:format>image/svg+xml</dc:format>
        <dc:type rdf:resource="http://purl.org/dc/dcmitype/StillImage"/>
      </cc:Work>
    </rdf:RDF>
  </metadata>
  <defs id="defs21">
    <inkscape:perspective sodipodi:type="inkscape:persp3d" inkscape:vp_x="0 : 120.625 : 1" inkscape:vp_y="0 : 1000 : 0" inkscape:vp_z="241.25 : 120.625 : 1" inkscape:persp3d-origin="120.625 : 80.416667 : 1" id="perspective25"/>
  </defs>
  <sodipodi:namedview inkscape:window-height="667" inkscape:window-width="640" inkscape:pageshadow="2" inkscape:pageopacity="0.0" guidetolerance="10.0" gridtolerance="10.0" objecttolerance="10.0" borderopacity="1.0" bordercolor="#666666" pagecolor="#ffffff" id="base" showgrid="false" inkscape:zoom="5.6568543" inkscape:cx="46.57353" inkscape:cy="-15.883813" inkscape:window-x="22" inkscape:window-y="23" inkscape:current-layer="svg2"/>
  <g transform="matrix(8.61737, 0, 0, 8.61737, -576.827, 29.0673)" style="fill: rgb(0, 0, 0); fill-rule: evenodd; stroke: none; stroke-width: 1; stroke-linecap: butt; stroke-linejoin: miter; stroke-dasharray: none;" id="g4">
    <path d="M 14.2803,12.0553 C 14.2803,12.0553 13.2764,10.0459 13.2764,10.0459 C 13.2764,10.0459 5.2383,10.0459 5.2383,10.0459 C 5.2383,10.0459 4.2344,12.0553 4.2344,12.0553 C 4.2344,12.0553 0,12.0553 0,12.0553 C 0,12.0553 6.3868,0 6.3868,0 C 6.3868,0 12.128,0 12.128,0 C 12.128,0 18.5147,12.0553 18.5147,12.0553 C 18.5147,12.0553 14.2803,12.0553 14.2803,12.0553 z M 11.9844,7.4629 C 11.9844,7.4629 9.6162,2.8701 9.6162,2.8701 C 9.6162,2.8701 8.8985,2.8701 8.8985,2.8701 C 8.8985,2.8701 6.5303,7.4629 6.5303,7.4629 C 6.5303,7.4629 11.9844,7.4629 11.9844,7.4629 z M 19.0166,0 C 19.0166,0 22.8926,0 22.8926,0 C 22.8926,0 22.8926,8.9697 22.8926,8.9697 C 22.8926,8.9697 31.5752,8.9697 31.5752,8.9697 C 31.5752,8.9697 31.5752,12.0553 31.5752,12.0553 C 31.5752,12.0553 19.0166,12.0553 19.0166,12.0553 C 19.0166,12.0553 19.0166,0 19.0166,0 z M 32.7227,0 C 32.7227,0 36.5987,0 36.5987,0 C 36.5987,0 36.5987,12.0553 36.5987,12.0553 C 36.5987,12.0553 32.7227,12.0553 32.7227,12.0553 C 32.7227,12.0553 32.7227,0 32.7227,0 z M 37.962,0 C 37.962,0 51.3809,0 51.3809,0 C 51.3809,0 51.3809,2.8701 51.3809,2.8701 C 51.3809,2.8701 41.6211,2.8701 41.6211,2.8701 C 41.6211,2.8701 41.6211,4.665 41.6211,4.665 C 41.6211,4.665 50.8789,4.665 50.8789,4.665 C 50.8789,4.665 50.8789,7.3193 50.8789,7.3193 C 50.8789,7.3193 41.6211,7.3193 41.6211,7.3193 C 41.6211,7.3193 41.6211,9.1855 41.6211,9.1855 C 41.6211,9.1855 51.4532,9.1855 51.4532,9.1855 C 51.4532,9.1855 51.4532,12.0553 51.4532,12.0553 C 51.4532,12.0553 37.962,12.0553 37.962,12.0553 C 37.962,12.0553 37.962,0 37.962,0 z M 52.8164,0 C 52.8164,0 59.2745,0 59.2745,0 C 59.2745,0 65.5899,8.9697 65.5899,8.9697 C 65.5899,8.9697 66.0196,8.9697 66.0196,8.9697 C 66.0196,8.9697 65.9483,0 65.9483,0 C 65.9483,0 69.6797,0 69.6797,0 C 69.6797,0 69.6797,12.0553 69.6797,12.0553 C 69.6797,12.0553 63.2207,12.0553 63.2207,12.0553 C 63.2207,12.0553 56.9063,3.0859 56.9063,3.0859 C 56.9063,3.0859 56.4756,3.0859 56.4756,3.0859 C 56.4756,3.0859 56.5479,12.0553 56.5479,12.0553 C 56.5479,12.0553 52.8164,12.0553 52.8164,12.0553 C 52.8164,12.0553 52.8164,0 52.8164,0 z M 70.2539,0 C 70.2539,0 74.0577,0 74.0577,0 C 74.0577,0 77.2862,9.042 77.2862,9.042 C 77.2862,9.042 78.0039,9.042 78.0039,9.042 C 78.0039,9.042 80.6582,0 80.6582,0 C 80.6582,0 85.1072,0 85.1072,0 C 85.1072,0 87.8352,9.042 87.8352,9.042 C 87.8352,9.042 88.5532,9.042 88.5532,9.042 C 88.5532,9.042 91.8532,0 91.8532,0 C 91.8532,0 95.7282,0 95.7282,0 C 95.7282,0 90.9922,12.0553 90.9922,12.0553 C 90.9922,12.0553 85.3232,12.0553 85.3232,12.0553 C 85.3232,12.0553 82.8838,3.2295 82.8838,3.2295 C 82.8838,3.2295 80.5157,12.0553 80.5157,12.0553 C 80.5157,12.0553 74.8467,12.0553 74.8467,12.0553 C 74.8467,12.0553 70.2539,0 70.2539,0 z M 107.281,12.0553 C 107.281,12.0553 111.444,12.0553 111.444,12.0553 C 111.444,12.0553 105.129,0 105.129,0 C 105.129,0 99.3892,0 99.3892,0 C 99.3892,0 92.9302,12.0553 92.9302,12.0553 C 92.9302,12.0553 97.1642,12.0553 97.1642,12.0553 C 97.1642,12.0553 98.2402,10.0459 98.2402,10.0459 C 98.2402,10.0459 106.206,10.0459 106.206,10.0459 C 106.206,10.0459 107.281,12.0553 107.281,12.0553 z M 104.914,7.4629 C 104.914,7.4629 99.5322,7.4629 99.5322,7.4629 C 99.5322,7.4629 101.899,2.8701 101.899,2.8701 C 101.899,2.8701 102.618,2.8701 102.618,2.8701 C 102.618,2.8701 104.914,7.4629 104.914,7.4629 z M 112.233,12.0553 C 112.233,12.0553 112.233,0 112.233,0 C 112.233,0 121.132,0 121.132,0 C 123.213,0 124.504,0.0722 124.863,0.0722 C 125.294,0.1435 125.724,0.2871 126.083,0.5029 C 126.586,0.79 126.872,1.1484 127.015,1.6513 C 127.231,2.1533 127.303,2.9424 127.303,3.9472 C 127.303,4.8799 127.231,5.5254 127.159,5.8838 C 127.015,6.3154 126.801,6.6738 126.514,6.8886 C 126.155,7.1758 125.724,7.3193 125.007,7.4629 C 125.796,7.5351 126.37,7.6787 126.729,8.0371 C 126.872,8.2529 127.015,8.539 127.088,8.8984 C 127.159,9.1855 127.159,9.9033 127.159,10.9795 C 127.159,10.9795 127.159,12.0553 127.159,12.0553 C 127.159,12.0553 123.5,12.0553 123.5,12.0553 C 123.5,12.0553 123.5,11.4092 123.5,11.4092 C 123.5,10.7636 123.5,10.2617 123.429,9.9746 C 123.429,9.6875 123.284,9.4726 123.14,9.3291 C 122.997,9.1855 122.853,9.1133 122.639,9.042 C 122.351,9.042 121.849,8.9697 121.132,8.9697 C 121.132,8.9697 115.893,8.9697 115.893,8.9697 C 115.893,8.9697 115.893,12.0553 115.893,12.0553 C 115.893,12.0553 112.233,12.0553 112.233,12.0553 z M 115.893,6.0283 C 115.893,6.0283 121.059,6.0283 121.059,6.0283 C 121.993,6.0283 122.567,6.0283 122.71,5.956 C 122.853,5.956 123.069,5.956 123.14,5.8838 C 123.284,5.7412 123.429,5.5976 123.5,5.3818 C 123.572,5.2392 123.572,4.8799 123.572,4.5215 C 123.572,4.0908 123.572,3.8037 123.5,3.5879 C 123.429,3.4443 123.284,3.3017 123.069,3.1582 C 122.997,3.1582 122.782,3.0859 122.639,3.0859 C 122.423,3.0859 121.921,3.0859 121.059,3.0859 C 121.059,3.0859 115.893,3.0859 115.893,3.0859 C 115.893,3.0859 115.893,6.0283 115.893,6.0283 z M 128.738,0 C 128.738,0 142.157,0 142.157,0 C 142.157,0 142.157,2.8701 142.157,2.8701 C 142.157,2.8701 132.398,2.8701 132.398,2.8701 C 132.398,2.8701 132.398,4.665 132.398,4.665 C 132.398,4.665 141.655,4.665 141.655,4.665 C 141.655,4.665 141.655,7.3193 141.655,7.3193 C 141.655,7.3193 132.398,7.3193 132.398,7.3193 C 132.398,7.3193 132.398,9.1855 132.398,9.1855 C 132.398,9.1855 142.229,9.1855 142.229,9.1855 C 142.229,9.1855 142.229,12.0553 142.229,12.0553 C 142.229,12.0553 128.738,12.0553 128.738,12.0553 C 128.738,12.0553 128.738,0 128.738,0 z" id="path6" style="fill: rgb(0, 0, 0);"/>
  </g>
  <g transform="matrix(8.61737, 0, 0, 8.61737, -574.345, 159.546)" style="fill: rgb(0, 0, 0); fill-rule: evenodd; stroke: none; stroke-width: 1; stroke-linecap: butt; stroke-linejoin: miter; stroke-dasharray: none;" id="g8">
    <path d="M 0,0 C 0,0 1.0039,0 1.0039,0 C 1.0039,0 1.0039,1.651 1.0039,1.651 C 1.0039,1.651 3.2285,1.651 3.2285,1.651 C 3.2285,1.651 3.2285,0 3.2285,0 C 3.2285,0 4.2334,0 4.2334,0 C 4.2334,0 4.2334,4.449 4.2334,4.449 C 4.2334,4.449 3.2285,4.449 3.2285,4.449 C 3.2285,4.449 3.2285,2.727 3.2285,2.727 C 3.2285,2.727 1.0039,2.727 1.0039,2.727 C 1.0039,2.727 1.0039,4.449 1.0039,4.449 C 1.0039,4.449 0,4.449 0,4.449 C 0,4.449 0,0 0,0 z M 136.272,0 C 136.272,0 140.506,0 140.506,0 C 140.506,0 140.506,1.004 140.506,1.004 C 140.506,1.004 137.276,1.004 137.276,1.004 C 137.276,1.004 137.276,1.651 137.276,1.651 C 137.276,1.651 140.506,1.651 140.506,1.651 C 140.506,1.651 140.506,4.449 140.506,4.449 C 140.506,4.449 136.272,4.449 136.272,4.449 C 136.272,4.449 136.272,3.445 136.272,3.445 C 136.272,3.445 139.501,3.445 139.501,3.445 C 139.501,3.445 139.501,2.727 139.501,2.727 C 139.501,2.727 136.272,2.727 136.272,2.727 C 136.272,2.727 136.272,0 136.272,0 z M 115.246,0 C 115.246,0 119.552,0 119.552,0 C 119.552,0 119.552,1.004 119.552,1.004 C 119.552,1.004 116.322,1.004 116.322,1.004 C 116.322,1.004 116.322,1.651 116.322,1.651 C 116.322,1.651 119.552,1.651 119.552,1.651 C 119.552,1.651 119.552,4.449 119.552,4.449 C 119.552,4.449 115.246,4.449 115.246,4.449 C 115.246,4.449 115.246,3.445 115.246,3.445 C 115.246,3.445 118.476,3.445 118.476,3.445 C 118.476,3.445 118.476,2.727 118.476,2.727 C 118.476,2.727 115.246,2.727 115.246,2.727 C 115.246,2.727 115.246,0 115.246,0 z M 105.559,0 C 105.559,0 109.864,0 109.864,0 C 109.864,0 109.864,1.004 109.864,1.004 C 109.864,1.004 106.635,1.004 106.635,1.004 C 106.635,1.004 106.635,1.651 106.635,1.651 C 106.635,1.651 109.864,1.651 109.864,1.651 C 109.864,1.651 109.864,4.449 109.864,4.449 C 109.864,4.449 105.559,4.449 105.559,4.449 C 105.559,4.449 105.559,3.445 105.559,3.445 C 105.559,3.445 108.788,3.445 108.788,3.445 C 108.788,3.445 108.788,2.727 108.788,2.727 C 108.788,2.727 105.559,2.727 105.559,2.727 C 105.559,2.727 105.559,0 105.559,0 z M 110.366,0 C 110.366,0 111.442,0 111.442,0 C 111.442,0 111.442,1.651 111.442,1.651 C 111.442,1.651 113.596,1.651 113.596,1.651 C 113.596,1.651 113.596,0 113.596,0 C 113.596,0 114.672,0 114.672,0 C 114.672,0 114.672,2.727 114.672,2.727 C 114.672,2.727 113.021,2.727 113.021,2.727 C 113.021,2.727 113.021,4.449 113.021,4.449 C 113.021,4.449 112.017,4.449 112.017,4.449 C 112.017,4.449 112.017,2.727 112.017,2.727 C 112.017,2.727 110.366,2.727 110.366,2.727 C 110.366,2.727 110.366,0 110.366,0 z M 119.982,0 C 119.982,0 124.288,0 124.288,0 C 124.288,0 124.288,1.004 124.288,1.004 C 124.288,1.004 122.709,1.004 122.709,1.004 C 122.709,1.004 122.709,4.449 122.709,4.449 C 122.709,4.449 121.705,4.449 121.705,4.449 C 121.705,4.449 121.705,1.004 121.705,1.004 C 121.705,1.004 119.982,1.004 119.982,1.004 C 119.982,1.004 119.982,0 119.982,0 z M 124.862,0 C 124.862,0 129.096,0 129.096,0 C 129.096,0 129.096,1.004 129.096,1.004 C 129.096,1.004 125.867,1.004 125.867,1.004 C 125.867,1.004 125.867,1.651 125.867,1.651 C 125.867,1.651 128.307,1.651 128.307,1.651 C 128.307,1.651 128.307,2.727 128.307,2.727 C 128.307,2.727 125.867,2.727 125.867,2.727 C 125.867,2.727 125.867,3.445 125.867,3.445 C 125.867,3.445 129.096,3.445 129.096,3.445 C 129.096,3.445 129.096,4.449 129.096,4.449 C 129.096,4.449 124.862,4.449 124.862,4.449 C 124.862,4.449 124.862,0 124.862,0 z M 68.6026,0 C 68.6026,0 72.9082,0 72.9082,0 C 72.9082,0 72.9082,1.004 72.9082,1.004 C 72.9082,1.004 69.6787,1.004 69.6787,1.004 C 69.6787,1.004 69.6787,1.651 69.6787,1.651 C 69.6787,1.651 72.1182,1.651 72.1182,1.651 C 72.1182,1.651 72.1182,2.727 72.1182,2.727 C 72.1182,2.727 69.6787,2.727 69.6787,2.727 C 69.6787,2.727 69.6787,3.445 69.6787,3.445 C 69.6787,3.445 72.9082,3.445 72.9082,3.445 C 72.9082,3.445 72.9082,4.449 72.9082,4.449 C 72.9082,4.449 68.6026,4.449 68.6026,4.449 C 68.6026,4.449 68.6026,0 68.6026,0 z M 34.085,4.449 C 34.085,4.449 33.0811,4.449 33.0811,4.449 C 33.0811,4.449 33.0811,0 33.0811,0 C 33.0811,0 37.3145,0 37.3145,0 C 37.3145,0 37.3145,1.004 37.3145,1.004 C 37.3145,1.004 34.085,1.004 34.085,1.004 C 34.085,1.004 34.085,1.651 34.085,1.651 C 34.085,1.651 36.5254,1.651 36.5254,1.651 C 36.5254,1.651 36.5254,2.727 36.5254,2.727 C 36.5254,2.727 34.085,2.727 34.085,2.727 C 34.085,2.727 34.085,4.449 34.085,4.449 z M 23.4649,0 C 23.4649,0 27.7705,0 27.7705,0 C 27.7705,0 27.7705,1.004 27.7705,1.004 C 27.7705,1.004 24.4697,1.004 24.4697,1.004 C 24.4697,1.004 24.4697,1.651 24.4697,1.651 C 24.4697,1.651 26.9815,1.651 26.9815,1.651 C 26.9815,1.651 26.9815,2.727 26.9815,2.727 C 26.9815,2.727 24.4697,2.727 24.4697,2.727 C 24.4697,2.727 24.4697,3.445 24.4697,3.445 C 24.4697,3.445 27.7705,3.445 27.7705,3.445 C 27.7705,3.445 27.7705,4.449 27.7705,4.449 C 27.7705,4.449 23.4649,4.449 23.4649,4.449 C 23.4649,4.449 23.4649,0 23.4649,0 z M 129.67,0 C 129.67,0 135.626,0 135.626,0 C 135.626,0 135.626,4.449 135.626,4.449 C 135.626,4.449 134.621,4.449 134.621,4.449 C 134.621,4.449 134.621,1.004 134.621,1.004 C 134.621,1.004 133.258,1.004 133.258,1.004 C 133.258,1.004 133.258,4.449 133.258,4.449 C 133.258,4.449 132.182,4.449 132.182,4.449 C 132.182,4.449 132.182,1.004 132.182,1.004 C 132.182,1.004 130.675,1.004 130.675,1.004 C 130.675,1.004 130.675,4.449 130.675,4.449 C 130.675,4.449 129.67,4.449 129.67,4.449 C 129.67,4.449 129.67,0 129.67,0 z M 85.3221,0 C 85.3221,0 91.3511,0 91.3511,0 C 91.3511,0 91.3511,4.449 91.3511,4.449 C 91.3511,4.449 90.2731,4.449 90.2731,4.449 C 90.2731,4.449 90.2731,1.004 90.2731,1.004 C 90.2731,1.004 88.9101,1.004 88.9101,1.004 C 88.9101,1.004 88.9101,4.449 88.9101,4.449 C 88.9101,4.449 87.9051,4.449 87.9051,4.449 C 87.9051,4.449 87.9051,1.004 87.9051,1.004 C 87.9051,1.004 86.3981,1.004 86.3981,1.004 C 86.3981,1.004 86.3981,4.449 86.3981,4.449 C 86.3981,4.449 85.3221,4.449 85.3221,4.449 C 85.3221,4.449 85.3221,0 85.3221,0 z M 47.5049,0 C 47.5049,0 53.5322,0 53.5322,0 C 53.5322,0 53.5322,4.449 53.5322,4.449 C 53.5322,4.449 52.4561,4.449 52.4561,4.449 C 52.4561,4.449 52.4561,1.004 52.4561,1.004 C 52.4561,1.004 51.0928,1.004 51.0928,1.004 C 51.0928,1.004 51.0928,4.449 51.0928,4.449 C 51.0928,4.449 50.0879,4.449 50.0879,4.449 C 50.0879,4.449 50.0879,1.004 50.0879,1.004 C 50.0879,1.004 48.5811,1.004 48.5811,1.004 C 48.5811,1.004 48.5811,4.449 48.5811,4.449 C 48.5811,4.449 47.5049,4.449 47.5049,4.449 C 47.5049,4.449 47.5049,0 47.5049,0 z M 63.794,0 C 63.794,0 68.0283,0 68.0283,0 C 68.0283,0 68.0283,1.004 68.0283,1.004 C 68.0283,1.004 64.7989,1.004 64.7989,1.004 C 64.7989,1.004 64.7989,3.445 64.7989,3.445 C 64.7989,3.445 68.0283,3.445 68.0283,3.445 C 68.0283,3.445 68.0283,4.449 68.0283,4.449 C 68.0283,4.449 63.794,4.449 63.794,4.449 C 63.794,4.449 63.794,0 63.794,0 z M 93.4321,0 C 93.4321,0 97.7361,0 97.7361,0 C 97.7361,0 97.7361,4.449 97.7361,4.449 C 97.7361,4.449 96.6601,4.449 96.6601,4.449 C 96.6601,4.449 96.6601,1.004 96.6601,1.004 C 96.6601,1.004 94.5081,1.004 94.5081,1.004 C 94.5081,1.004 94.5081,4.449 94.5081,4.449 C 94.5081,4.449 93.4321,4.449 93.4321,4.449 C 93.4321,4.449 93.4321,0 93.4321,0 z M 58.9151,0 C 58.9151,0 63.2207,0 63.2207,0 C 63.2207,0 63.2207,4.449 63.2207,4.449 C 63.2207,4.449 62.2158,4.449 62.2158,4.449 C 62.2158,4.449 62.2158,1.004 62.2158,1.004 C 62.2158,1.004 59.9912,1.004 59.9912,1.004 C 59.9912,1.004 59.9912,4.449 59.9912,4.449 C 59.9912,4.449 58.9151,4.449 58.9151,4.449 C 58.9151,4.449 58.9151,0 58.9151,0 z M 28.2725,0 C 29.708,0 31.0713,0 32.5069,0 C 32.5069,0.574 32.5069,1.076 32.5069,1.651 C 32.5069,1.651 31.502,1.651 31.502,1.651 C 31.502,1.651 31.502,2.727 31.502,2.727 C 31.502,2.727 32.5069,2.727 32.5069,2.727 C 32.5069,2.727 32.5069,4.449 32.5069,4.449 C 32.5069,4.449 31.502,4.449 31.502,4.449 C 31.502,4.449 31.502,2.727 31.502,2.727 C 31.502,2.727 29.2774,2.727 29.2774,2.727 C 29.2774,2.727 29.2774,4.449 29.2774,4.449 C 29.2774,4.449 28.2725,4.449 28.2725,4.449 C 28.2725,4.449 28.2725,0 28.2725,0 z M 31.502,1.004 C 31.502,1.004 29.2774,1.004 29.2774,1.004 C 29.2774,1.004 29.2774,1.651 29.2774,1.651 C 29.2774,1.651 31.502,1.651 31.502,1.651 C 31.502,1.651 31.502,1.004 31.502,1.004 z M 42.8399,0 C 44.2754,0 45.711,0 47.1455,0 C 47.1455,0.574 47.1455,1.076 47.1455,1.651 C 47.1455,1.651 46.0694,1.651 46.0694,1.651 C 46.0694,1.651 46.0694,2.727 46.0694,2.727 C 46.0694,2.727 47.1455,2.727 47.1455,2.727 C 47.1455,2.727 47.1455,4.449 47.1455,4.449 C 47.1455,4.449 46.0694,4.449 46.0694,4.449 C 46.0694,4.449 46.0694,2.727 46.0694,2.727 C 46.0694,2.727 43.917,2.727 43.917,2.727 C 43.917,2.727 43.917,4.449 43.917,4.449 C 43.917,4.449 42.8399,4.449 42.8399,4.449 C 42.8399,4.449 42.8399,0 42.8399,0 z M 46.0694,1.004 C 46.0694,1.004 43.917,1.004 43.917,1.004 C 43.917,1.004 43.917,1.651 43.917,1.651 C 43.917,1.651 46.0694,1.651 46.0694,1.651 C 46.0694,1.651 46.0694,1.004 46.0694,1.004 z M 16.3604,1.651 C 16.3604,1.651 18.083,1.651 18.083,1.651 C 18.083,1.651 18.083,2.727 18.083,2.727 C 18.083,2.727 16.3604,2.727 16.3604,2.727 C 16.3604,2.727 16.3604,1.651 16.3604,1.651 z M 37.8887,0 C 37.8887,0 42.1231,0 42.1231,0 C 42.1231,0 42.1231,4.449 42.1231,4.449 C 42.1231,4.449 37.8887,4.449 37.8887,4.449 C 37.8887,4.449 37.8887,0 37.8887,0 z M 38.8936,1.004 C 38.8936,1.004 38.8936,3.445 38.8936,3.445 C 38.8936,3.445 41.1182,3.445 41.1182,3.445 C 41.1182,3.445 41.1182,1.004 41.1182,1.004 C 41.1182,1.004 38.8936,1.004 38.8936,1.004 z M 80.586,0 C 80.586,0 84.8191,0 84.8191,0 C 84.8191,0 84.8191,4.449 84.8191,4.449 C 84.8191,4.449 83.8151,4.449 83.8151,4.449 C 83.8151,4.449 83.8151,2.727 83.8151,2.727 C 83.8151,2.727 81.5908,2.727 81.5908,2.727 C 81.5908,2.727 81.5908,4.449 81.5908,4.449 C 81.5908,4.449 80.586,4.449 80.586,4.449 C 80.586,4.449 80.586,0 80.586,0 z M 81.5908,1.004 C 81.5908,1.004 81.5908,1.651 81.5908,1.651 C 81.5908,1.651 83.8151,1.651 83.8151,1.651 C 83.8151,1.651 83.8151,1.004 83.8151,1.004 C 83.8151,1.004 81.5908,1.004 81.5908,1.004 z M 54.1074,0 C 54.1074,0 58.3399,0 58.3399,0 C 58.3399,0 58.3399,4.449 58.3399,4.449 C 58.3399,4.449 57.336,4.449 57.336,4.449 C 57.336,4.449 57.336,2.727 57.336,2.727 C 57.336,2.727 55.1114,2.727 55.1114,2.727 C 55.1114,2.727 55.1114,4.449 55.1114,4.449 C 55.1114,4.449 54.1074,4.449 54.1074,4.449 C 54.1074,4.449 54.1074,0 54.1074,0 z M 55.1114,1.004 C 55.1114,1.004 55.1114,1.651 55.1114,1.651 C 55.1114,1.651 57.336,1.651 57.336,1.651 C 57.336,1.651 57.336,1.004 57.336,1.004 C 57.336,1.004 55.1114,1.004 55.1114,1.004 z M 18.6572,0 C 18.6572,0 22.8906,0 22.8906,0 C 22.8906,0 22.8906,2.727 22.8906,2.727 C 22.8906,2.727 19.6621,2.727 19.6621,2.727 C 19.6621,2.727 19.6621,4.449 19.6621,4.449 C 19.6621,4.449 18.6572,4.449 18.6572,4.449 C 18.6572,4.449 18.6572,0 18.6572,0 z M 19.6621,1.004 C 19.6621,1.004 19.6621,1.651 19.6621,1.651 C 19.6621,1.651 21.8867,1.651 21.8867,1.651 C 21.8867,1.651 21.8867,1.004 21.8867,1.004 C 21.8867,1.004 19.6621,1.004 19.6621,1.004 z M 98.3101,0 C 98.3101,0 102.545,0 102.545,0 C 102.545,0 102.545,1.004 102.545,1.004 C 102.545,1.004 99.3151,1.004 99.3151,1.004 C 99.3151,1.004 99.3151,3.445 99.3151,3.445 C 99.3151,3.445 101.54,3.445 101.54,3.445 C 101.54,3.445 101.54,2.727 101.54,2.727 C 101.54,2.727 100.033,2.727 100.033,2.727 C 100.033,2.727 100.033,1.651 100.033,1.651 C 100.033,1.651 102.545,1.651 102.545,1.651 C 102.545,1.651 102.545,4.449 102.545,4.449 C 102.545,4.449 98.3101,4.449 98.3101,4.449 C 98.3101,4.449 98.3101,0 98.3101,0 z M 75.7783,0 C 75.7783,0 80.0127,0 80.0127,0 C 80.0127,0 80.0127,1.004 80.0127,1.004 C 80.0127,1.004 76.8555,1.004 76.8555,1.004 C 76.8555,1.004 76.8555,3.445 76.8555,3.445 C 76.8555,3.445 79.0078,3.445 79.0078,3.445 C 79.0078,3.445 79.0078,2.727 79.0078,2.727 C 79.0078,2.727 77.5,2.727 77.5,2.727 C 77.5,2.727 77.5,1.651 77.5,1.651 C 77.5,1.651 80.0127,1.651 80.0127,1.651 C 80.0127,1.651 80.0127,4.449 80.0127,4.449 C 80.0127,4.449 75.7783,4.449 75.7783,4.449 C 75.7783,4.449 75.7783,0 75.7783,0 z M 6.5293,0 C 6.5293,0 10.7637,0 10.7637,0 C 10.7637,0 10.7637,1.004 10.7637,1.004 C 10.7637,1.004 7.5342,1.004 7.5342,1.004 C 7.5342,1.004 7.5342,3.445 7.5342,3.445 C 7.5342,3.445 9.7588,3.445 9.7588,3.445 C 9.7588,3.445 9.7588,2.727 9.7588,2.727 C 9.7588,2.727 8.252,2.727 8.252,2.727 C 8.252,2.727 8.252,1.651 8.252,1.651 C 8.252,1.651 10.7637,1.651 10.7637,1.651 C 10.7637,1.651 10.7637,4.449 10.7637,4.449 C 10.7637,4.449 6.5293,4.449 6.5293,4.449 C 6.5293,4.449 6.5293,0 6.5293,0 z M 91.8521,0 C 91.8521,0 92.8571,0 92.8571,0 C 92.8571,0 92.8571,4.449 92.8571,4.449 C 92.8571,4.449 91.8521,4.449 91.8521,4.449 C 91.8521,4.449 91.8521,0 91.8521,0 z M 5.0225,0 C 5.0225,0 6.0274,0 6.0274,0 C 6.0274,0 6.0274,4.449 6.0274,4.449 C 6.0274,4.449 5.0225,4.449 5.0225,4.449 C 5.0225,4.449 5.0225,0 5.0225,0 z M 11.4092,0 C 11.4092,0 12.4141,0 12.4141,0 C 12.4141,0 12.4141,1.651 12.4141,1.651 C 12.4141,1.651 14.6387,1.651 14.6387,1.651 C 14.6387,1.651 14.6387,0 14.6387,0 C 14.6387,0 15.6426,0 15.6426,0 C 15.6426,0 15.6426,4.449 15.6426,4.449 C 15.6426,4.449 14.6387,4.449 14.6387,4.449 C 14.6387,4.449 14.6387,2.727 14.6387,2.727 C 14.6387,2.727 12.4141,2.727 12.4141,2.727 C 12.4141,2.727 12.4141,4.449 12.4141,4.449 C 12.4141,4.449 11.4092,4.449 11.4092,4.449 C 11.4092,4.449 11.4092,0 11.4092,0 z" id="path10" style="fill: rgb(0, 0, 0);"/>
  </g>
  <g transform="matrix(8.61737, 0, 0, 8.61737, 662.413, 0)" style="fill: rgb(0, 0, 0); fill-rule: evenodd; stroke: none; stroke-width: 1; stroke-linecap: butt; stroke-linejoin: miter; stroke-dasharray: none;" id="g12">
    <path d="M 2.082,2.0821 C 3.301,0.8623 4.953,0 6.459,0 C 6.459,0 6.459,0 6.459,0 C 7.966,0 9.617,0.8623 10.836,2.0821 C 11.841,3.086 12.559,4.0196 12.703,5.4551 C 12.99,7.2481 12.917,10.0469 12.703,10.9795 C 12.559,11.9844 11.769,13.2041 11.052,14.4239 C 9.617,16.7924 7.679,18.9454 6.459,18.9454 C 6.459,18.9454 6.459,18.9454 6.459,18.9454 C 5.24,18.9454 3.374,16.7924 1.938,14.4239 C 1.149,13.2041 0.431,11.9844 0.216,10.9795 C 0,10.1192 0,7.3916 0.144,5.5977 C 0.36,4.0908 1.005,3.1582 2.082,2.0821 z M 2.728,10.1192 C 3.661,10.6211 5.024,12.3428 5.311,13.4912 C 5.742,14.9264 5.527,15.2134 4.019,14.4239 C 3.158,13.9942 1.795,12.6299 1.507,11.7686 C 0.79,10.1192 0.862,9.1856 2.728,10.1192 z M 10.262,10.1192 C 9.258,10.6211 7.894,12.3428 7.607,13.4912 C 7.249,14.9264 7.392,15.2134 8.899,14.4239 C 9.76,13.9942 11.124,12.6299 11.482,11.7686 C 12.128,10.1192 12.056,9.1856 10.262,10.1192 z" id="path14" style="fill: rgb(0, 0, 0);"/>
  </g>
  <g transform="matrix(8.61737, 0, 0, 8.61737, 785.478, 30.9269)" style="fill: rgb(0, 0, 0); fill-rule: evenodd; stroke: none; stroke-width: 1; stroke-linecap: butt; stroke-linejoin: miter; stroke-dasharray: none;" id="g16">
    <path d="M 0.933,0.6455 C 0.933,0.6455 0.933,1.0039 0.933,1.0039 C 0.933,1.0039 1.077,1.0039 1.077,1.0039 C 1.148,1.0039 1.22,1.0039 1.292,0.9326 C 1.364,0.9326 1.364,0.8603 1.364,0.7891 C 1.364,0.7168 1.364,0.7168 1.292,0.6455 C 1.22,0.6455 1.148,0.6455 1.077,0.6455 C 1.077,0.6455 0.933,0.6455 0.933,0.6455 z M 0.646,0.4307 C 0.646,0.4307 1.077,0.4307 1.077,0.4307 C 1.292,0.4307 1.435,0.5019 1.508,0.5019 C 1.579,0.5742 1.65,0.6455 1.65,0.7891 C 1.65,0.8603 1.579,0.9326 1.579,1.0039 C 1.508,1.0762 1.435,1.0762 1.364,1.1475 C 1.364,1.1475 1.65,1.6504 1.65,1.6504 C 1.65,1.6504 1.364,1.6504 1.364,1.6504 C 1.364,1.6504 1.077,1.1475 1.077,1.1475 C 1.077,1.1475 0.933,1.1475 0.933,1.1475 C 0.933,1.1475 0.933,1.6504 0.933,1.6504 C 0.933,1.6504 0.646,1.6504 0.646,1.6504 C 0.646,1.6504 0.646,0.4307 0.646,0.4307 z M 1.077,0.1435 C 1.22,0.1435 1.364,0.1435 1.435,0.2148 C 1.579,0.2871 1.65,0.3584 1.722,0.4307 C 1.866,0.5019 1.938,0.6455 1.938,0.7168 C 2.009,0.8603 2.009,1.0039 2.009,1.0762 C 2.009,1.2197 2.009,1.3633 1.938,1.4355 C 1.866,1.5781 1.866,1.6504 1.722,1.7217 C 1.65,1.8662 1.579,1.9375 1.435,1.9375 C 1.292,2.0088 1.22,2.0088 1.077,2.0088 C 0.933,2.0088 0.861,2.0088 0.718,1.9375 C 0.646,1.8662 0.503,1.7939 0.43,1.7217 C 0.359,1.6504 0.287,1.5781 0.216,1.4355 C 0.143,1.291 0.143,1.2197 0.143,1.0762 C 0.143,0.9326 0.143,0.8603 0.216,0.7168 C 0.287,0.6455 0.359,0.5019 0.43,0.4307 C 0.503,0.3584 0.646,0.2871 0.718,0.2148 C 0.861,0.1435 0.933,0.1435 1.077,0.1435 z M 1.077,0 C 1.22,0 1.364,0 1.508,0.0713 C 1.65,0.1435 1.795,0.2148 1.866,0.2871 C 1.938,0.4307 2.081,0.5019 2.081,0.6455 C 2.153,0.7891 2.153,0.9326 2.153,1.0762 C 2.153,1.2197 2.153,1.3633 2.081,1.5068 C 2.081,1.6504 1.938,1.7939 1.866,1.8662 C 1.722,1.9375 1.65,2.0088 1.508,2.081 C 1.364,2.1523 1.22,2.1523 1.077,2.1523 C 0.933,2.1523 0.79,2.1523 0.646,2.081 C 0.503,2.0088 0.43,1.9375 0.287,1.8662 C 0.216,1.7217 0.143,1.6504 0.072,1.5068 C 0,1.3633 0,1.2197 0,1.0762 C 0,0.9326 0,0.7891 0.072,0.6455 C 0.143,0.5019 0.216,0.4307 0.287,0.2871 C 0.43,0.2148 0.503,0.1435 0.646,0.0713 C 0.79,0 0.933,0 1.077,0 z" id="path18" style="fill: rgb(0, 0, 0);"/>
  </g>
</svg>