<svg id="Layer_1" data-name="Layer 1" xmlns="http://www.w3.org/2000/svg" viewBox="0 0 120 120"><defs><style>.cls-1{fill:#007db8;}</style></defs><title>brandlogo_4</title><g id="layer1"><g id="g3460"><path id="path3462" class="cls-1" d="M59,19.68a40.8,40.8,0,1,0,28.85,12A40.68,40.68,0,0,0,59,19.68m0-4.94A45.75,45.75,0,1,1,13.25,60.49,45.75,45.75,0,0,1,59,14.74"/></g><g id="g3464"><path id="path3466" class="cls-1" d="M37.37,60.12a3.94,3.94,0,0,0-4.28-4.18H31.56V64.3h1.49c2.33,0,4.32-1.26,4.32-4.18m27.26,3L53.34,72,43,63.89A10,10,0,0,1,33.79,70H25V50.28h8.83A9.9,9.9,0,0,1,43,56.36l10.32-8.11,3.82,3L47.7,58.69l1.82,1.42L59,52.68l3.83,3-9.46,7.45,1.81,1.42,9.47-7.44V50.28h6.86V64.21h6.85V70H64.63ZM87,64.21h6.85V70H80.16V50.28H87Z"/></g></g></svg>