<svg id="Layer_1" data-name="Layer 1" xmlns="http://www.w3.org/2000/svg" viewBox="0 0 120 120"><defs><style>.cls-1{fill:#66b933;}</style></defs><title>brandlogo_2</title><path class="cls-1" d="M107.28,13.38A1.57,1.57,0,0,0,104.57,12l-.84.92-1.33.57a2.9,2.9,0,0,0-1.55,0,1.16,1.16,0,0,1-.69,0,4.07,4.07,0,0,0-2.27.14,3.65,3.65,0,0,0-3.18,1.66l-.13.16a4.79,4.79,0,0,0-3.68,3,3.43,3.43,0,0,0-.16.61,7.94,7.94,0,0,0-8.89-.37A8.23,8.23,0,0,0,78,28.19c1.67,6.13,7.49,11.91,11,15.37l1.13,1.12c1.81,1.85,4.15,5.58,3.69,8.07a3,3,0,0,1-2,2.21,7.85,7.85,0,0,1-2.23.65,9.67,9.67,0,0,0-1.78-10c-3.48-3.61-6.76-2.71-8-1.73a1.58,1.58,0,0,0,1,2.82,5.29,5.29,0,0,1,4.36,2.89A4.3,4.3,0,0,1,84.78,54,19.46,19.46,0,0,1,83,52.21l-.6-.61-.13-.14c-2.5-2.81-5-4.46-7.59-4.9-.32-4.51-3.5-9.06-8.32-11.71a10.49,10.49,0,0,0-1.22-.58,11.16,11.16,0,0,0-8.37-9.16c-6.7-1.88-12,1.11-14.59,8.22-.88,2.42-2.75,10.68-4.29,17.61l-.28,1.3a4.85,4.85,0,0,1-2.41,3,1.18,1.18,0,0,1-1.26-.29c-1.12-.91-.46-3.53-.1-4.94.06-.28.12-.51.17-.73a4.43,4.43,0,0,0-1.15-3.9A4.2,4.2,0,0,0,29.09,44a5.24,5.24,0,0,0-4.22,3.88,3.84,3.84,0,0,0-1.41-1.67,3.68,3.68,0,0,0-1.36-.53,4.09,4.09,0,0,0-2.22-.59,1.18,1.18,0,0,1-.67-.14,2.76,2.76,0,0,0-1.74-.26L16.38,44l-.69-1a1.57,1.57,0,0,0-2-.54,1.59,1.59,0,0,0-.85,1.44,1.57,1.57,0,0,0,.42,3l1.24.17,1.07.68a2.76,2.76,0,0,0,.94,1.46,1.13,1.13,0,0,1,.4.56,4.12,4.12,0,0,0,1.44,1.78,3.83,3.83,0,0,0,1,1,3.68,3.68,0,0,0,2.15.58h.21a4.79,4.79,0,0,0,4.58,1.26,5.14,5.14,0,0,0,.59-.22,7.92,7.92,0,0,0,4.88,7.43A8.2,8.2,0,0,0,41.7,59.2c4-4.93,5.33-13,6.11-17.87l.26-1.57c.45-2.55,2.11-6.62,4.41-7.69a2.91,2.91,0,0,1,2.94.31,7.21,7.21,0,0,1,1.82,1.43,9.65,9.65,0,0,0-7.1,7.27c-.91,4.93,1.74,7.08,3.27,7.52a1.58,1.58,0,0,0,1.72-2.43,5.26,5.26,0,0,1-.19-5.23,4.32,4.32,0,0,1,3.79-2.25,21.19,21.19,0,0,1-.36,2.52c-.06.3-.11.59-.15.84,0,0,0,.11,0,.18a14.44,14.44,0,0,0,.16,8.4c-3.7,2.28-6.33,6.95-6.71,12.17a12.09,12.09,0,0,0,0,1.35,11.13,11.13,0,0,0-4.83,11.42c1.07,6.88,6,10.46,13.55,9.85,2.57-.21,10.86-2,17.8-3.45l1.29-.28a4.84,4.84,0,0,1,3.7,1,1.18,1.18,0,0,1,.26,1.26c-.36,1.4-3,1.89-4.45,2.16l-.73.14a4.43,4.43,0,0,0-3.07,2.67,4.18,4.18,0,0,0,.35,3.93A5.22,5.22,0,0,0,80.76,95a3.93,3.93,0,0,0-.93,2,3.86,3.86,0,0,0,.08,1.45,4.06,4.06,0,0,0,.39,2.26,1.13,1.13,0,0,1,.15.67,2.85,2.85,0,0,0,.53,1.74l-.23,1.62-.67,1a1.57,1.57,0,0,0,2,2.27,1.58,1.58,0,0,0,2.57-1.61l-.35-1.2.25-1.72a2.89,2.89,0,0,0,.89-1.42,1.17,1.17,0,0,1,.33-.6,4.08,4.08,0,0,0,1-2,3.72,3.72,0,0,0,.5-1.37,3.8,3.8,0,0,0-.36-2.2l-.08-.19A4.8,4.8,0,0,0,86.08,91a6.09,6.09,0,0,0-.44-.44,8,8,0,0,0,4.73-7.53A8.23,8.23,0,0,0,84,75c-6.16-1.59-14.07.59-18.79,1.89l-1.54.42c-2.5.66-6.9.84-8.83-.8a2.93,2.93,0,0,1-.94-2.8,7.57,7.57,0,0,1,.54-2.26A9.66,9.66,0,0,0,64,74.9c4.86-1.23,5.71-4.53,5.48-6.1a1.58,1.58,0,0,0-2.93-.56,5.3,5.3,0,0,1-4.68,2.36,4.33,4.33,0,0,1-3.62-2.51,19.64,19.64,0,0,1,2.43-.73l.83-.21.19,0c3.81-.8,6.55-2.26,8.18-4.34,3.81,1.93,9,1.82,13.58-.4a12.45,12.45,0,0,0,1.18-.65A11.15,11.15,0,0,0,97,60.24c5.44-4.35,6.1-10.42,1.83-16.65C97.36,41.47,91.73,35.13,87,29.85l-.88-1a4.74,4.74,0,0,1-1-3.68,1.16,1.16,0,0,1,1-.85C87.45,24,89.2,26,90.14,27.12c.18.22.34.4.49.57A4.44,4.44,0,0,0,94.47,29a4.19,4.19,0,0,0,3.24-2.25,5.24,5.24,0,0,0-.7-5.69,3.85,3.85,0,0,0,2.19-.18,4,4,0,0,0,1.22-.79,4,4,0,0,0,1.76-1.46,1.21,1.21,0,0,1,.51-.46,2.75,2.75,0,0,0,1.3-1.44l1.16-.5,1.25,0a1.57,1.57,0,0,0,.88-2.89m-42.9,44c-.5,1.37-3.58,2.71-5.75,3.53a11,11,0,0,1,2.23-3c1.69-1.57,3.1-1.53,3.4-1.37A.86.86,0,0,1,64.38,57.39Zm2.32-8.48a.87.87,0,0,1-.78-.22c-1-1-1-4.38-.81-6.7a11.5,11.5,0,0,1,1.76,3.27c.72,2.18.1,3.45-.17,3.65Zm8,7.85c-2.2-.68-2.87-1.93-2.88-2.26a.87.87,0,0,1,.64-.5c1.44-.25,4.13,1.75,5.92,3.24a11.36,11.36,0,0,1-3.68-.48Z"/><path d="M106.42,14.7,105,14.38l.72-1.29-1.07,1.18-2.33,1a1.08,1.08,0,0,0-1.1-.24c-1.43.36-1.47-.41-3.06.17-.32.12-.21-.15-1.24.18-.71.24-1.19,1.43-1.67,1.53-4.6,1-2.78,4.91-2.14,5.69.79,1,.13,1.3-.22.95-.54-.55-1.22-1.44-2.51-2.72-4.45-4.38-12.72.08-10.85,6.94,1.76,6.46,8.77,12.82,11.71,15.81,2.65,2.7,7.26,10.09,1.25,12.81a7.81,7.81,0,0,1-5.29.62c2.1-3.42,2-7.74-.5-10.32-3.41-3.54-5.92-1.58-5.92-1.58,4,0,8.95,5,4.85,10.4a7.87,7.87,0,0,1-.53.62,19.52,19.52,0,0,1-3.88-3.42c-.38-.38-3.85-4.81-8.17-4.71.38-4.6-3-9.27-7.51-11.77a10.36,10.36,0,0,0-1.87-.81c-.44-3.43-2.13-7.31-7.39-8.79-8-2.26-11.41,3.71-12.68,7.23-1.1,3-4,16.54-4.52,18.73s-3.39,5.83-6.2,3.54c-2.16-1.76-.8-5.7-.47-7.22a2.84,2.84,0,0,0-3.09-3.33c-2.4.36-2.85,2.56-3.12,3.27a1.38,1.38,0,0,1-2.2.58c-.41-.27-.69-1.46-1.34-1.84-.94-.53-.88-.24-1.18-.42-1.43-.89-1.63-.15-3-.78a1.12,1.12,0,0,0-1-.07l-.21.18-2.09-1.33-.87-1.33.53,1.35-1.47.13,1.57.22,2.07,1.31A1,1,0,0,0,17.49,48c1.12,1,.53,1.43,1.92,2.39.29.19,0,.26.87.9.61.44,1.86.14,2.22.47,3.48,3.16,5.61-.6,5.87-1.57.32-1.2,1-.86.9-.38-.13.76-.46,1.83-.75,3.63-1,6.16,7.47,10.3,12,4.78,4.23-5.2,5.32-14.6,6-18.72.65-3.73,4-11.78,9.68-8.48A7.87,7.87,0,0,1,59.79,35c-4,.28-7.45,2.9-8.1,6.42-.89,4.83,2.16,5.72,2.16,5.72-2.32-3.22-1.13-10.19,5.63-10a7.38,7.38,0,0,1,.81.07,19.48,19.48,0,0,1-.52,5.14c-.08.51-1.54,5.55.67,9-4.15,1.71-6.87,6.55-7.24,11.6a10.5,10.5,0,0,0,0,2c-2.94,1.84-5.76,5-4.91,10.39,1.28,8.21,8.12,8.82,11.86,8.52,3.19-.26,16.7-3.24,18.9-3.7s6.71.66,5.81,4.16c-.71,2.7-4.86,3.11-6.37,3.44A2.84,2.84,0,0,0,76.8,92c1.33,2,3.51,1.52,4.27,1.47,1.6-.09,1.49,1.44,1.44,1.76-.07.49-1,1.23-1.11,2-.09,1.07.15.9.11,1.25-.21,1.67.54,1.54.52,3a1.15,1.15,0,0,0,.33.91h0l.06.06,0,0h0a.66.66,0,0,0,.19.09l-.41,2.81-.86,1.34,1-1,.73,1.29-.44-1.53.41-2.83a1,1,0,0,0,.81-.85c.4-1.42,1.08-1.07,1.37-2.74.06-.34.24-.11.46-1.16.15-.74-.65-1.75-.5-2.21,1.43-4.49-2.88-4.85-3.87-4.69-1.23.21-1.2-.53-.72-.66.75-.2,1.86-.34,3.61-.83,6-1.68,6.25-11.08-.64-12.86-6.48-1.68-15.48,1.25-19.53,2.31-3.66,1-12.36,1.29-11.74-5.28a7.87,7.87,0,0,1,2.08-4.89c1.93,3.51,5.75,5.55,9.21,4.68C68.42,72.17,68,69,68,69c-2,3.44-8.8,5.27-11.43-1a7.08,7.08,0,0,1-.28-.77,20,20,0,0,1,4.9-1.67c.52-.14,6.32-1,8.27-5,3.54,2.55,8.94,2.46,13.39.32a10.14,10.14,0,0,0,1.75-1.05c3,1.64,7.19,2.52,11.45-.89,6.49-5.19,3.62-11.43,1.51-14.52-1.82-2.64-11.11-12.9-12.6-14.57s-2.76-6.16.73-7.11c2.69-.73,5.1,2.67,6.14,3.82a2.83,2.83,0,0,0,4.51-.57c1.1-2.16-.42-3.81-.84-4.44a1.38,1.38,0,0,1,.81-2.13c.46-.18,1.59.3,2.27,0,1-.45.71-.57,1-.71,1.56-.65,1.07-1.24,2.36-2a1.19,1.19,0,0,0,.6-.66v0a.75.75,0,0,0,0-.44l2.29-1,1.59,0M63.7,40.05c0-.43.08-.93.1-1.48a12.5,12.5,0,0,1,4.56,6.19c1.09,3.27-.12,5.56-1.42,5.71-4.33.5-3.58-7.08-3.24-10.42ZM57.45,63c-.4.14-.88.31-1.39.52a12.52,12.52,0,0,1,3.73-6.73c2.52-2.34,5.11-2.21,5.78-1.08C67.83,59.45,60.63,61.92,57.45,63Zm16.79-4.74c-3.29-1-4.46-3.34-3.82-4.48C72.54,50,78.26,55,80.78,57.22c.33.28.71.61,1.15,1A12.49,12.49,0,0,1,74.24,58.27Z"/><path class="cls-1" d="M86.22,107h.3v-.87h.33v-.21h-1v.21h.33V107m.72,0v-1h.45l.17.69h0l.16-.69h.44v1h-.24v-.85h0l-.23.86h-.26l-.23-.86h0v.86h-.25"/></svg>