<svg id="Layer_1" data-name="Layer 1" xmlns="http://www.w3.org/2000/svg" viewBox="0 0 120 120"><title>brandlogo_1</title><g id="g16"><path id="path14" d="M39,24.53c5.85-5.85,13.78-10,21-10s15.16,4.14,21,10c4.82,4.82,8.27,9.3,9,16.19,1.37,8.6,1,22,0,26.51-.69,4.82-4.49,10.68-7.93,16.53-6.88,11.37-16.18,21.7-22,21.7s-14.81-10.33-21.7-21.7C34.47,77.91,31,72.05,30,67.23,29,63.1,29,50,29.65,41.4,30.69,34.17,33.78,29.7,39,24.53ZM36.19,71c1.39,4.13,7.93,10.68,12.06,12.74,7.24,3.79,8.27,2.42,6.2-4.47-1.38-5.52-7.92-13.78-12.4-16.19C33.1,58.62,32.75,63.1,36.19,71Zm42-7.92c-4.82,2.41-11.36,10.67-12.74,16.19-1.72,6.89-1,8.26,6.2,4.47C75.8,81.7,82.35,75.15,84.07,71,87.16,63.1,86.82,58.62,78.21,63.1Z"/></g></svg>