<svg id="Layer_1" data-name="Layer 1" xmlns="http://www.w3.org/2000/svg" viewBox="0 0 120 120"><defs><style>.cls-1{fill:#4987ce;}</style></defs><title>brandlogo_5 copy 3</title><path class="cls-1" d="M60.63,107.5l-1.38,0,9.49-26.1H81.81a6.42,6.42,0,0,0,5.6-3.91l10.3-28.3c1.68-4.63-1-8.42-5.9-8.42H73.68L58.47,82.54h0l-8.62,23.7A46.47,46.47,0,0,1,48.09,16.3l-8.9,24.45h0L24.4,81.38h9.84L46.82,46.86h7.4L41.64,81.38h9.85L63.21,49.17c1.68-4.63-1-8.42-5.89-8.42H49l9.5-26.12c.7,0,1.39-.05,2.09-.05a46.46,46.46,0,0,1,0,92.92ZM88.74,46.83h-7.4L71,75.26h7.4Z"/></svg>