<svg id="Layer_1" data-name="Layer 1" xmlns="http://www.w3.org/2000/svg" viewBox="0 0 120 120"><defs><style>.cls-1{fill:#00539b;}</style></defs><title>brandlogo_3 copy</title><path class="cls-1" d="M105.77,50.82a2.05,2.05,0,0,1,2-2.07,2.08,2.08,0,0,1,1.44.6,2.08,2.08,0,0,1,0,2.9,2,2,0,0,1-3.47-1.43m-.17,0a2.22,2.22,0,0,0,2.22,2.23,2.09,2.09,0,0,0,1.55-.65,2.29,2.29,0,0,0,.65-1.58,2.26,2.26,0,0,0-.65-1.59,2.2,2.2,0,0,0-1.55-.65,2.23,2.23,0,0,0-2.22,2.24M107,52.14h.32v-1H108a.8.8,0,0,1,.28,0,.43.43,0,0,1,.16.32l0,.41v.19s0,.05,0,.07h.39v0c-.06,0-.08-.08-.09-.15a.59.59,0,0,1,0-.21l0-.32a.48.48,0,0,0-.08-.29.51.51,0,0,0-.22-.15.54.54,0,0,0,.24-.23.61.61,0,0,0,.08-.35.6.6,0,0,0-.32-.58,1.08,1.08,0,0,0-.43-.07H107l0,2.42Zm.3-1.32V50H108a.6.6,0,0,1,.26.05.38.38,0,0,1,.16.36c0,.17,0,.28-.13.33a.5.5,0,0,1-.33.1ZM19,53.89,10,68.12h6.19l8.71-13.6Zm37.27-.32V48.3H38.7a5.73,5.73,0,0,0-4.23,2.13,7.53,7.53,0,0,0-1.3,2.72V48.34H23.8a2.23,2.23,0,0,0-1.88,1c-.52.68-2.66,4.22-2.66,4.22Zm47.87,0V48.3H85.34a5.75,5.75,0,0,0-4.23,2.13,7.36,7.36,0,0,0-1.3,2.72v.42ZM62.49,48.32H57.22v5.25h5.27Zm17.26,0H74.5v5.25h5.25Zm0,7.15-5.18-.31v6.09A1.71,1.71,0,0,1,72.86,63H64a1.67,1.67,0,0,1-1.51-1.73V54.34L57.27,54V63.3a5.7,5.7,0,0,0,4.88,4.82s.41,0,.49,0h12s5.14-.41,5.14-5.37l0-7.32ZM27.81,68.12H52.43a5.79,5.79,0,0,0,4.73-4.77,8.15,8.15,0,0,0,.09-2.1c-.13-.78-1.62-4.25-4.82-4.55-1.92-.18-19-1.54-19-1.54a5.37,5.37,0,0,0,1.62,3.07,6.74,6.74,0,0,0,3.07,1.47l13.17,1.1a1,1,0,0,1,1.16,1.14,1,1,0,0,1-1.08,1H33V55.12l-5.13-.37S27.81,68.12,27.81,68.12Zm52,0H98.64a5.75,5.75,0,0,0,5.4-4.77,8.61,8.61,0,0,0,0-2.14c-.13-1.06-1.64-4.27-4.86-4.58-1.9-.19-19.1-1.2-19.1-1.2a5.12,5.12,0,0,0,1.72,2.8,6.06,6.06,0,0,0,3,1.41L98.1,60.8c.41,0,1.25.06,1.25,1.06a1.09,1.09,0,0,1-.34.78,2.12,2.12,0,0,1-.87.25H79.85Z"/></svg>